<mxfile host="app.diagrams.net" agent="Mozilla/5.0 (Windows NT 10.0; Win64; x64) AppleWebKit/537.36 (KHTML, like Gecko) Chrome/132.0.0.0 Safari/537.36 Edg/132.0.0.0" version="26.0.10">
  <diagram name="Page-1" id="BAn6TtGsRjouGtGRCC2k">
    <mxGraphModel dx="1972" dy="889" grid="1" gridSize="10" guides="1" tooltips="1" connect="1" arrows="1" fold="1" page="1" pageScale="1" pageWidth="850" pageHeight="1100" math="0" shadow="0">
      <root>
        <mxCell id="0" />
        <mxCell id="1" parent="0" />
        <mxCell id="hPnUlYxOqyxjtpTadZdU-192" value="decks" style="shape=table;startSize=25;container=1;collapsible=0;childLayout=tableLayout;fixedRows=1;rowLines=1;fontStyle=1;align=center;resizeLast=1;" parent="1" vertex="1">
          <mxGeometry x="141" y="411" width="133" height="91" as="geometry" />
        </mxCell>
        <mxCell id="hPnUlYxOqyxjtpTadZdU-193" style="shape=tableRow;horizontal=0;startSize=0;swimlaneHead=0;swimlaneBody=0;fillColor=none;collapsible=0;dropTarget=0;points=[[0,0.5],[1,0.5]];portConstraint=eastwest;top=0;left=0;right=0;bottom=0;" parent="hPnUlYxOqyxjtpTadZdU-192" vertex="1">
          <mxGeometry y="25" width="133" height="22" as="geometry" />
        </mxCell>
        <mxCell id="hPnUlYxOqyxjtpTadZdU-194" value="TEXT" style="shape=partialRectangle;connectable=0;fillColor=none;top=0;left=0;bottom=0;right=0;align=left;spacingLeft=2;overflow=hidden;fontSize=11;" parent="hPnUlYxOqyxjtpTadZdU-193" vertex="1">
          <mxGeometry width="43" height="22" as="geometry">
            <mxRectangle width="43" height="22" as="alternateBounds" />
          </mxGeometry>
        </mxCell>
        <mxCell id="hPnUlYxOqyxjtpTadZdU-195" value="deckId" style="shape=partialRectangle;connectable=0;fillColor=none;top=0;left=0;bottom=0;right=0;align=left;spacingLeft=2;overflow=hidden;fontSize=11;" parent="hPnUlYxOqyxjtpTadZdU-193" vertex="1">
          <mxGeometry x="43" width="60" height="22" as="geometry">
            <mxRectangle width="60" height="22" as="alternateBounds" />
          </mxGeometry>
        </mxCell>
        <mxCell id="hPnUlYxOqyxjtpTadZdU-196" value="PK" style="shape=partialRectangle;connectable=0;fillColor=none;top=0;left=0;bottom=0;right=0;align=left;spacingLeft=2;overflow=hidden;fontSize=11;" parent="hPnUlYxOqyxjtpTadZdU-193" vertex="1">
          <mxGeometry x="103" width="30" height="22" as="geometry">
            <mxRectangle width="30" height="22" as="alternateBounds" />
          </mxGeometry>
        </mxCell>
        <mxCell id="hPnUlYxOqyxjtpTadZdU-197" style="shape=tableRow;horizontal=0;startSize=0;swimlaneHead=0;swimlaneBody=0;fillColor=none;collapsible=0;dropTarget=0;points=[[0,0.5],[1,0.5]];portConstraint=eastwest;top=0;left=0;right=0;bottom=0;" parent="hPnUlYxOqyxjtpTadZdU-192" vertex="1">
          <mxGeometry y="47" width="133" height="22" as="geometry" />
        </mxCell>
        <mxCell id="hPnUlYxOqyxjtpTadZdU-198" value="TEXT" style="shape=partialRectangle;connectable=0;fillColor=none;top=0;left=0;bottom=0;right=0;align=left;spacingLeft=2;overflow=hidden;fontSize=11;" parent="hPnUlYxOqyxjtpTadZdU-197" vertex="1">
          <mxGeometry width="43" height="22" as="geometry">
            <mxRectangle width="43" height="22" as="alternateBounds" />
          </mxGeometry>
        </mxCell>
        <mxCell id="hPnUlYxOqyxjtpTadZdU-199" value="deckName" style="shape=partialRectangle;connectable=0;fillColor=none;top=0;left=0;bottom=0;right=0;align=left;spacingLeft=2;overflow=hidden;fontSize=11;" parent="hPnUlYxOqyxjtpTadZdU-197" vertex="1">
          <mxGeometry x="43" width="60" height="22" as="geometry">
            <mxRectangle width="60" height="22" as="alternateBounds" />
          </mxGeometry>
        </mxCell>
        <mxCell id="hPnUlYxOqyxjtpTadZdU-200" value="" style="shape=partialRectangle;connectable=0;fillColor=none;top=0;left=0;bottom=0;right=0;align=left;spacingLeft=2;overflow=hidden;fontSize=11;" parent="hPnUlYxOqyxjtpTadZdU-197" vertex="1">
          <mxGeometry x="103" width="30" height="22" as="geometry">
            <mxRectangle width="30" height="22" as="alternateBounds" />
          </mxGeometry>
        </mxCell>
        <mxCell id="hPnUlYxOqyxjtpTadZdU-201" style="shape=tableRow;horizontal=0;startSize=0;swimlaneHead=0;swimlaneBody=0;fillColor=none;collapsible=0;dropTarget=0;points=[[0,0.5],[1,0.5]];portConstraint=eastwest;top=0;left=0;right=0;bottom=0;" parent="hPnUlYxOqyxjtpTadZdU-192" vertex="1">
          <mxGeometry y="69" width="133" height="22" as="geometry" />
        </mxCell>
        <mxCell id="hPnUlYxOqyxjtpTadZdU-202" value="TEXT" style="shape=partialRectangle;connectable=0;fillColor=none;top=0;left=0;bottom=0;right=0;align=left;spacingLeft=2;overflow=hidden;fontSize=11;" parent="hPnUlYxOqyxjtpTadZdU-201" vertex="1">
          <mxGeometry width="43" height="22" as="geometry">
            <mxRectangle width="43" height="22" as="alternateBounds" />
          </mxGeometry>
        </mxCell>
        <mxCell id="hPnUlYxOqyxjtpTadZdU-203" value="cards" style="shape=partialRectangle;connectable=0;fillColor=none;top=0;left=0;bottom=0;right=0;align=left;spacingLeft=2;overflow=hidden;fontSize=11;" parent="hPnUlYxOqyxjtpTadZdU-201" vertex="1">
          <mxGeometry x="43" width="60" height="22" as="geometry">
            <mxRectangle width="60" height="22" as="alternateBounds" />
          </mxGeometry>
        </mxCell>
        <mxCell id="hPnUlYxOqyxjtpTadZdU-204" value="" style="shape=partialRectangle;connectable=0;fillColor=none;top=0;left=0;bottom=0;right=0;align=left;spacingLeft=2;overflow=hidden;fontSize=11;" parent="hPnUlYxOqyxjtpTadZdU-201" vertex="1">
          <mxGeometry x="103" width="30" height="22" as="geometry">
            <mxRectangle width="30" height="22" as="alternateBounds" />
          </mxGeometry>
        </mxCell>
        <mxCell id="hPnUlYxOqyxjtpTadZdU-205" value="cards" style="shape=table;startSize=25;container=1;collapsible=0;childLayout=tableLayout;fixedRows=1;rowLines=1;fontStyle=1;align=center;resizeLast=1;" parent="1" vertex="1">
          <mxGeometry x="342" y="600" width="154" height="157" as="geometry" />
        </mxCell>
        <mxCell id="hPnUlYxOqyxjtpTadZdU-206" style="shape=tableRow;horizontal=0;startSize=0;swimlaneHead=0;swimlaneBody=0;fillColor=none;collapsible=0;dropTarget=0;points=[[0,0.5],[1,0.5]];portConstraint=eastwest;top=0;left=0;right=0;bottom=0;" parent="hPnUlYxOqyxjtpTadZdU-205" vertex="1">
          <mxGeometry y="25" width="154" height="22" as="geometry" />
        </mxCell>
        <mxCell id="hPnUlYxOqyxjtpTadZdU-207" value="TEXT" style="shape=partialRectangle;connectable=0;fillColor=none;top=0;left=0;bottom=0;right=0;align=left;spacingLeft=2;overflow=hidden;fontSize=11;" parent="hPnUlYxOqyxjtpTadZdU-206" vertex="1">
          <mxGeometry width="40" height="22" as="geometry">
            <mxRectangle width="40" height="22" as="alternateBounds" />
          </mxGeometry>
        </mxCell>
        <mxCell id="hPnUlYxOqyxjtpTadZdU-208" value="cardId" style="shape=partialRectangle;connectable=0;fillColor=none;top=0;left=0;bottom=0;right=0;align=left;spacingLeft=2;overflow=hidden;fontSize=11;" parent="hPnUlYxOqyxjtpTadZdU-206" vertex="1">
          <mxGeometry x="40" width="80" height="22" as="geometry">
            <mxRectangle width="80" height="22" as="alternateBounds" />
          </mxGeometry>
        </mxCell>
        <mxCell id="hPnUlYxOqyxjtpTadZdU-209" value="PK" style="shape=partialRectangle;connectable=0;fillColor=none;top=0;left=0;bottom=0;right=0;align=left;spacingLeft=2;overflow=hidden;fontSize=11;" parent="hPnUlYxOqyxjtpTadZdU-206" vertex="1">
          <mxGeometry x="120" width="34" height="22" as="geometry">
            <mxRectangle width="34" height="22" as="alternateBounds" />
          </mxGeometry>
        </mxCell>
        <mxCell id="hPnUlYxOqyxjtpTadZdU-210" style="shape=tableRow;horizontal=0;startSize=0;swimlaneHead=0;swimlaneBody=0;fillColor=none;collapsible=0;dropTarget=0;points=[[0,0.5],[1,0.5]];portConstraint=eastwest;top=0;left=0;right=0;bottom=0;" parent="hPnUlYxOqyxjtpTadZdU-205" vertex="1">
          <mxGeometry y="47" width="154" height="22" as="geometry" />
        </mxCell>
        <mxCell id="hPnUlYxOqyxjtpTadZdU-211" value="TEXT" style="shape=partialRectangle;connectable=0;fillColor=none;top=0;left=0;bottom=0;right=0;align=left;spacingLeft=2;overflow=hidden;fontSize=11;" parent="hPnUlYxOqyxjtpTadZdU-210" vertex="1">
          <mxGeometry width="40" height="22" as="geometry">
            <mxRectangle width="40" height="22" as="alternateBounds" />
          </mxGeometry>
        </mxCell>
        <mxCell id="hPnUlYxOqyxjtpTadZdU-212" value="game" style="shape=partialRectangle;connectable=0;fillColor=none;top=0;left=0;bottom=0;right=0;align=left;spacingLeft=2;overflow=hidden;fontSize=11;" parent="hPnUlYxOqyxjtpTadZdU-210" vertex="1">
          <mxGeometry x="40" width="80" height="22" as="geometry">
            <mxRectangle width="80" height="22" as="alternateBounds" />
          </mxGeometry>
        </mxCell>
        <mxCell id="hPnUlYxOqyxjtpTadZdU-213" value="" style="shape=partialRectangle;connectable=0;fillColor=none;top=0;left=0;bottom=0;right=0;align=left;spacingLeft=2;overflow=hidden;fontSize=11;" parent="hPnUlYxOqyxjtpTadZdU-210" vertex="1">
          <mxGeometry x="120" width="34" height="22" as="geometry">
            <mxRectangle width="34" height="22" as="alternateBounds" />
          </mxGeometry>
        </mxCell>
        <mxCell id="hPnUlYxOqyxjtpTadZdU-214" style="shape=tableRow;horizontal=0;startSize=0;swimlaneHead=0;swimlaneBody=0;fillColor=none;collapsible=0;dropTarget=0;points=[[0,0.5],[1,0.5]];portConstraint=eastwest;top=0;left=0;right=0;bottom=0;" parent="hPnUlYxOqyxjtpTadZdU-205" vertex="1">
          <mxGeometry y="69" width="154" height="22" as="geometry" />
        </mxCell>
        <mxCell id="hPnUlYxOqyxjtpTadZdU-215" value="TEXT" style="shape=partialRectangle;connectable=0;fillColor=none;top=0;left=0;bottom=0;right=0;align=left;spacingLeft=2;overflow=hidden;fontSize=11;" parent="hPnUlYxOqyxjtpTadZdU-214" vertex="1">
          <mxGeometry width="40" height="22" as="geometry">
            <mxRectangle width="40" height="22" as="alternateBounds" />
          </mxGeometry>
        </mxCell>
        <mxCell id="hPnUlYxOqyxjtpTadZdU-216" value="name" style="shape=partialRectangle;connectable=0;fillColor=none;top=0;left=0;bottom=0;right=0;align=left;spacingLeft=2;overflow=hidden;fontSize=11;" parent="hPnUlYxOqyxjtpTadZdU-214" vertex="1">
          <mxGeometry x="40" width="80" height="22" as="geometry">
            <mxRectangle width="80" height="22" as="alternateBounds" />
          </mxGeometry>
        </mxCell>
        <mxCell id="hPnUlYxOqyxjtpTadZdU-217" value="" style="shape=partialRectangle;connectable=0;fillColor=none;top=0;left=0;bottom=0;right=0;align=left;spacingLeft=2;overflow=hidden;fontSize=11;" parent="hPnUlYxOqyxjtpTadZdU-214" vertex="1">
          <mxGeometry x="120" width="34" height="22" as="geometry">
            <mxRectangle width="34" height="22" as="alternateBounds" />
          </mxGeometry>
        </mxCell>
        <mxCell id="hPnUlYxOqyxjtpTadZdU-218" style="shape=tableRow;horizontal=0;startSize=0;swimlaneHead=0;swimlaneBody=0;fillColor=none;collapsible=0;dropTarget=0;points=[[0,0.5],[1,0.5]];portConstraint=eastwest;top=0;left=0;right=0;bottom=0;" parent="hPnUlYxOqyxjtpTadZdU-205" vertex="1">
          <mxGeometry y="91" width="154" height="22" as="geometry" />
        </mxCell>
        <mxCell id="hPnUlYxOqyxjtpTadZdU-219" value="TEXT" style="shape=partialRectangle;connectable=0;fillColor=none;top=0;left=0;bottom=0;right=0;align=left;spacingLeft=2;overflow=hidden;fontSize=11;" parent="hPnUlYxOqyxjtpTadZdU-218" vertex="1">
          <mxGeometry width="40" height="22" as="geometry">
            <mxRectangle width="40" height="22" as="alternateBounds" />
          </mxGeometry>
        </mxCell>
        <mxCell id="hPnUlYxOqyxjtpTadZdU-220" value="description" style="shape=partialRectangle;connectable=0;fillColor=none;top=0;left=0;bottom=0;right=0;align=left;spacingLeft=2;overflow=hidden;fontSize=11;" parent="hPnUlYxOqyxjtpTadZdU-218" vertex="1">
          <mxGeometry x="40" width="80" height="22" as="geometry">
            <mxRectangle width="80" height="22" as="alternateBounds" />
          </mxGeometry>
        </mxCell>
        <mxCell id="hPnUlYxOqyxjtpTadZdU-221" value="" style="shape=partialRectangle;connectable=0;fillColor=none;top=0;left=0;bottom=0;right=0;align=left;spacingLeft=2;overflow=hidden;fontSize=11;" parent="hPnUlYxOqyxjtpTadZdU-218" vertex="1">
          <mxGeometry x="120" width="34" height="22" as="geometry">
            <mxRectangle width="34" height="22" as="alternateBounds" />
          </mxGeometry>
        </mxCell>
        <mxCell id="hPnUlYxOqyxjtpTadZdU-222" style="shape=tableRow;horizontal=0;startSize=0;swimlaneHead=0;swimlaneBody=0;fillColor=none;collapsible=0;dropTarget=0;points=[[0,0.5],[1,0.5]];portConstraint=eastwest;top=0;left=0;right=0;bottom=0;" parent="hPnUlYxOqyxjtpTadZdU-205" vertex="1">
          <mxGeometry y="113" width="154" height="22" as="geometry" />
        </mxCell>
        <mxCell id="hPnUlYxOqyxjtpTadZdU-223" value="TEXT" style="shape=partialRectangle;connectable=0;fillColor=none;top=0;left=0;bottom=0;right=0;align=left;spacingLeft=2;overflow=hidden;fontSize=11;" parent="hPnUlYxOqyxjtpTadZdU-222" vertex="1">
          <mxGeometry width="40" height="22" as="geometry">
            <mxRectangle width="40" height="22" as="alternateBounds" />
          </mxGeometry>
        </mxCell>
        <mxCell id="hPnUlYxOqyxjtpTadZdU-224" value="imageUrl" style="shape=partialRectangle;connectable=0;fillColor=none;top=0;left=0;bottom=0;right=0;align=left;spacingLeft=2;overflow=hidden;fontSize=11;" parent="hPnUlYxOqyxjtpTadZdU-222" vertex="1">
          <mxGeometry x="40" width="80" height="22" as="geometry">
            <mxRectangle width="80" height="22" as="alternateBounds" />
          </mxGeometry>
        </mxCell>
        <mxCell id="hPnUlYxOqyxjtpTadZdU-225" value="" style="shape=partialRectangle;connectable=0;fillColor=none;top=0;left=0;bottom=0;right=0;align=left;spacingLeft=2;overflow=hidden;fontSize=11;" parent="hPnUlYxOqyxjtpTadZdU-222" vertex="1">
          <mxGeometry x="120" width="34" height="22" as="geometry">
            <mxRectangle width="34" height="22" as="alternateBounds" />
          </mxGeometry>
        </mxCell>
        <mxCell id="hPnUlYxOqyxjtpTadZdU-226" style="shape=tableRow;horizontal=0;startSize=0;swimlaneHead=0;swimlaneBody=0;fillColor=none;collapsible=0;dropTarget=0;points=[[0,0.5],[1,0.5]];portConstraint=eastwest;top=0;left=0;right=0;bottom=0;" parent="hPnUlYxOqyxjtpTadZdU-205" vertex="1">
          <mxGeometry y="135" width="154" height="22" as="geometry" />
        </mxCell>
        <mxCell id="hPnUlYxOqyxjtpTadZdU-227" value="TEXT" style="shape=partialRectangle;connectable=0;fillColor=none;top=0;left=0;bottom=0;right=0;align=left;spacingLeft=2;overflow=hidden;fontSize=11;" parent="hPnUlYxOqyxjtpTadZdU-226" vertex="1">
          <mxGeometry width="40" height="22" as="geometry">
            <mxRectangle width="40" height="22" as="alternateBounds" />
          </mxGeometry>
        </mxCell>
        <mxCell id="hPnUlYxOqyxjtpTadZdU-228" value="additionalData" style="shape=partialRectangle;connectable=0;fillColor=none;top=0;left=0;bottom=0;right=0;align=left;spacingLeft=2;overflow=hidden;fontSize=11;" parent="hPnUlYxOqyxjtpTadZdU-226" vertex="1">
          <mxGeometry x="40" width="80" height="22" as="geometry">
            <mxRectangle width="80" height="22" as="alternateBounds" />
          </mxGeometry>
        </mxCell>
        <mxCell id="hPnUlYxOqyxjtpTadZdU-229" value="" style="shape=partialRectangle;connectable=0;fillColor=none;top=0;left=0;bottom=0;right=0;align=left;spacingLeft=2;overflow=hidden;fontSize=11;" parent="hPnUlYxOqyxjtpTadZdU-226" vertex="1">
          <mxGeometry x="120" width="34" height="22" as="geometry">
            <mxRectangle width="34" height="22" as="alternateBounds" />
          </mxGeometry>
        </mxCell>
        <mxCell id="hPnUlYxOqyxjtpTadZdU-230" value="pages" style="shape=table;startSize=25;container=1;collapsible=0;childLayout=tableLayout;fixedRows=1;rowLines=1;fontStyle=1;align=center;resizeLast=1;" parent="1" vertex="1">
          <mxGeometry x="346" y="844" width="147" height="68" as="geometry" />
        </mxCell>
        <mxCell id="hPnUlYxOqyxjtpTadZdU-231" style="shape=tableRow;horizontal=0;startSize=0;swimlaneHead=0;swimlaneBody=0;fillColor=none;collapsible=0;dropTarget=0;points=[[0,0.5],[1,0.5]];portConstraint=eastwest;top=0;left=0;right=0;bottom=0;" parent="hPnUlYxOqyxjtpTadZdU-230" vertex="1">
          <mxGeometry y="25" width="147" height="21" as="geometry" />
        </mxCell>
        <mxCell id="hPnUlYxOqyxjtpTadZdU-232" value="TEXT" style="shape=partialRectangle;connectable=0;fillColor=none;top=0;left=0;bottom=0;right=0;align=left;spacingLeft=2;overflow=hidden;fontSize=11;" parent="hPnUlYxOqyxjtpTadZdU-231" vertex="1">
          <mxGeometry width="60" height="21" as="geometry">
            <mxRectangle width="60" height="21" as="alternateBounds" />
          </mxGeometry>
        </mxCell>
        <mxCell id="hPnUlYxOqyxjtpTadZdU-233" value="game" style="shape=partialRectangle;connectable=0;fillColor=none;top=0;left=0;bottom=0;right=0;align=left;spacingLeft=2;overflow=hidden;fontSize=11;" parent="hPnUlYxOqyxjtpTadZdU-231" vertex="1">
          <mxGeometry x="60" width="40" height="21" as="geometry">
            <mxRectangle width="40" height="21" as="alternateBounds" />
          </mxGeometry>
        </mxCell>
        <mxCell id="hPnUlYxOqyxjtpTadZdU-234" value="PK, FK" style="shape=partialRectangle;connectable=0;fillColor=none;top=0;left=0;bottom=0;right=0;align=left;spacingLeft=2;overflow=hidden;fontSize=11;" parent="hPnUlYxOqyxjtpTadZdU-231" vertex="1">
          <mxGeometry x="100" width="47" height="21" as="geometry">
            <mxRectangle width="47" height="21" as="alternateBounds" />
          </mxGeometry>
        </mxCell>
        <mxCell id="hPnUlYxOqyxjtpTadZdU-235" style="shape=tableRow;horizontal=0;startSize=0;swimlaneHead=0;swimlaneBody=0;fillColor=none;collapsible=0;dropTarget=0;points=[[0,0.5],[1,0.5]];portConstraint=eastwest;top=0;left=0;right=0;bottom=0;" parent="hPnUlYxOqyxjtpTadZdU-230" vertex="1">
          <mxGeometry y="46" width="147" height="21" as="geometry" />
        </mxCell>
        <mxCell id="hPnUlYxOqyxjtpTadZdU-236" value="INTEGER" style="shape=partialRectangle;connectable=0;fillColor=none;top=0;left=0;bottom=0;right=0;align=left;spacingLeft=2;overflow=hidden;fontSize=11;" parent="hPnUlYxOqyxjtpTadZdU-235" vertex="1">
          <mxGeometry width="60" height="21" as="geometry">
            <mxRectangle width="60" height="21" as="alternateBounds" />
          </mxGeometry>
        </mxCell>
        <mxCell id="hPnUlYxOqyxjtpTadZdU-237" value="page" style="shape=partialRectangle;connectable=0;fillColor=none;top=0;left=0;bottom=0;right=0;align=left;spacingLeft=2;overflow=hidden;fontSize=11;" parent="hPnUlYxOqyxjtpTadZdU-235" vertex="1">
          <mxGeometry x="60" width="40" height="21" as="geometry">
            <mxRectangle width="40" height="21" as="alternateBounds" />
          </mxGeometry>
        </mxCell>
        <mxCell id="hPnUlYxOqyxjtpTadZdU-238" value="" style="shape=partialRectangle;connectable=0;fillColor=none;top=0;left=0;bottom=0;right=0;align=left;spacingLeft=2;overflow=hidden;fontSize=11;" parent="hPnUlYxOqyxjtpTadZdU-235" vertex="1">
          <mxGeometry x="100" width="47" height="21" as="geometry">
            <mxRectangle width="47" height="21" as="alternateBounds" />
          </mxGeometry>
        </mxCell>
        <mxCell id="hPnUlYxOqyxjtpTadZdU-239" value="records" style="shape=table;startSize=25;container=1;collapsible=0;childLayout=tableLayout;fixedRows=1;rowLines=1;fontStyle=1;align=center;resizeLast=1;" parent="1" vertex="1">
          <mxGeometry x="340" y="411" width="159" height="91" as="geometry" />
        </mxCell>
        <mxCell id="hPnUlYxOqyxjtpTadZdU-240" style="shape=tableRow;horizontal=0;startSize=0;swimlaneHead=0;swimlaneBody=0;fillColor=none;collapsible=0;dropTarget=0;points=[[0,0.5],[1,0.5]];portConstraint=eastwest;top=0;left=0;right=0;bottom=0;" parent="hPnUlYxOqyxjtpTadZdU-239" vertex="1">
          <mxGeometry y="25" width="159" height="22" as="geometry" />
        </mxCell>
        <mxCell id="hPnUlYxOqyxjtpTadZdU-241" value="TEXT" style="shape=partialRectangle;connectable=0;fillColor=none;top=0;left=0;bottom=0;right=0;align=left;spacingLeft=2;overflow=hidden;fontSize=11;" parent="hPnUlYxOqyxjtpTadZdU-240" vertex="1">
          <mxGeometry width="69" height="22" as="geometry">
            <mxRectangle width="69" height="22" as="alternateBounds" />
          </mxGeometry>
        </mxCell>
        <mxCell id="hPnUlYxOqyxjtpTadZdU-242" value="recordId" style="shape=partialRectangle;connectable=0;fillColor=none;top=0;left=0;bottom=0;right=0;align=left;spacingLeft=2;overflow=hidden;fontSize=11;" parent="hPnUlYxOqyxjtpTadZdU-240" vertex="1">
          <mxGeometry x="69" width="60" height="22" as="geometry">
            <mxRectangle width="60" height="22" as="alternateBounds" />
          </mxGeometry>
        </mxCell>
        <mxCell id="hPnUlYxOqyxjtpTadZdU-243" value="PK" style="shape=partialRectangle;connectable=0;fillColor=none;top=0;left=0;bottom=0;right=0;align=left;spacingLeft=2;overflow=hidden;fontSize=11;" parent="hPnUlYxOqyxjtpTadZdU-240" vertex="1">
          <mxGeometry x="129" width="30" height="22" as="geometry">
            <mxRectangle width="30" height="22" as="alternateBounds" />
          </mxGeometry>
        </mxCell>
        <mxCell id="hPnUlYxOqyxjtpTadZdU-244" style="shape=tableRow;horizontal=0;startSize=0;swimlaneHead=0;swimlaneBody=0;fillColor=none;collapsible=0;dropTarget=0;points=[[0,0.5],[1,0.5]];portConstraint=eastwest;top=0;left=0;right=0;bottom=0;" parent="hPnUlYxOqyxjtpTadZdU-239" vertex="1">
          <mxGeometry y="47" width="159" height="22" as="geometry" />
        </mxCell>
        <mxCell id="hPnUlYxOqyxjtpTadZdU-245" value="DATETIME" style="shape=partialRectangle;connectable=0;fillColor=none;top=0;left=0;bottom=0;right=0;align=left;spacingLeft=2;overflow=hidden;fontSize=11;" parent="hPnUlYxOqyxjtpTadZdU-244" vertex="1">
          <mxGeometry width="69" height="22" as="geometry">
            <mxRectangle width="69" height="22" as="alternateBounds" />
          </mxGeometry>
        </mxCell>
        <mxCell id="hPnUlYxOqyxjtpTadZdU-246" value="createdAt" style="shape=partialRectangle;connectable=0;fillColor=none;top=0;left=0;bottom=0;right=0;align=left;spacingLeft=2;overflow=hidden;fontSize=11;" parent="hPnUlYxOqyxjtpTadZdU-244" vertex="1">
          <mxGeometry x="69" width="60" height="22" as="geometry">
            <mxRectangle width="60" height="22" as="alternateBounds" />
          </mxGeometry>
        </mxCell>
        <mxCell id="hPnUlYxOqyxjtpTadZdU-247" value="" style="shape=partialRectangle;connectable=0;fillColor=none;top=0;left=0;bottom=0;right=0;align=left;spacingLeft=2;overflow=hidden;fontSize=11;" parent="hPnUlYxOqyxjtpTadZdU-244" vertex="1">
          <mxGeometry x="129" width="30" height="22" as="geometry">
            <mxRectangle width="30" height="22" as="alternateBounds" />
          </mxGeometry>
        </mxCell>
        <mxCell id="hPnUlYxOqyxjtpTadZdU-248" style="shape=tableRow;horizontal=0;startSize=0;swimlaneHead=0;swimlaneBody=0;fillColor=none;collapsible=0;dropTarget=0;points=[[0,0.5],[1,0.5]];portConstraint=eastwest;top=0;left=0;right=0;bottom=0;" parent="hPnUlYxOqyxjtpTadZdU-239" vertex="1">
          <mxGeometry y="69" width="159" height="22" as="geometry" />
        </mxCell>
        <mxCell id="hPnUlYxOqyxjtpTadZdU-249" value="TEXT" style="shape=partialRectangle;connectable=0;fillColor=none;top=0;left=0;bottom=0;right=0;align=left;spacingLeft=2;overflow=hidden;fontSize=11;" parent="hPnUlYxOqyxjtpTadZdU-248" vertex="1">
          <mxGeometry width="69" height="22" as="geometry">
            <mxRectangle width="69" height="22" as="alternateBounds" />
          </mxGeometry>
        </mxCell>
        <mxCell id="hPnUlYxOqyxjtpTadZdU-250" value="data" style="shape=partialRectangle;connectable=0;fillColor=none;top=0;left=0;bottom=0;right=0;align=left;spacingLeft=2;overflow=hidden;fontSize=11;" parent="hPnUlYxOqyxjtpTadZdU-248" vertex="1">
          <mxGeometry x="69" width="60" height="22" as="geometry">
            <mxRectangle width="60" height="22" as="alternateBounds" />
          </mxGeometry>
        </mxCell>
        <mxCell id="hPnUlYxOqyxjtpTadZdU-251" value="" style="shape=partialRectangle;connectable=0;fillColor=none;top=0;left=0;bottom=0;right=0;align=left;spacingLeft=2;overflow=hidden;fontSize=11;" parent="hPnUlYxOqyxjtpTadZdU-248" vertex="1">
          <mxGeometry x="129" width="30" height="22" as="geometry">
            <mxRectangle width="30" height="22" as="alternateBounds" />
          </mxGeometry>
        </mxCell>
        <mxCell id="hPnUlYxOqyxjtpTadZdU-252" value="users" style="shape=table;startSize=25;container=1;collapsible=0;childLayout=tableLayout;fixedRows=1;rowLines=1;fontStyle=1;align=center;resizeLast=1;" parent="1" vertex="1">
          <mxGeometry x="354" y="199" width="130" height="113" as="geometry" />
        </mxCell>
        <mxCell id="hPnUlYxOqyxjtpTadZdU-253" style="shape=tableRow;horizontal=0;startSize=0;swimlaneHead=0;swimlaneBody=0;fillColor=none;collapsible=0;dropTarget=0;points=[[0,0.5],[1,0.5]];portConstraint=eastwest;top=0;left=0;right=0;bottom=0;" parent="hPnUlYxOqyxjtpTadZdU-252" vertex="1">
          <mxGeometry y="25" width="130" height="22" as="geometry" />
        </mxCell>
        <mxCell id="hPnUlYxOqyxjtpTadZdU-254" value="TEXT" style="shape=partialRectangle;connectable=0;fillColor=none;top=0;left=0;bottom=0;right=0;align=left;spacingLeft=2;overflow=hidden;fontSize=11;" parent="hPnUlYxOqyxjtpTadZdU-253" vertex="1">
          <mxGeometry width="40" height="22" as="geometry">
            <mxRectangle width="40" height="22" as="alternateBounds" />
          </mxGeometry>
        </mxCell>
        <mxCell id="hPnUlYxOqyxjtpTadZdU-255" value="userId" style="shape=partialRectangle;connectable=0;fillColor=none;top=0;left=0;bottom=0;right=0;align=left;spacingLeft=2;overflow=hidden;fontSize=11;" parent="hPnUlYxOqyxjtpTadZdU-253" vertex="1">
          <mxGeometry x="40" width="60" height="22" as="geometry">
            <mxRectangle width="60" height="22" as="alternateBounds" />
          </mxGeometry>
        </mxCell>
        <mxCell id="hPnUlYxOqyxjtpTadZdU-256" value="PK" style="shape=partialRectangle;connectable=0;fillColor=none;top=0;left=0;bottom=0;right=0;align=left;spacingLeft=2;overflow=hidden;fontSize=11;" parent="hPnUlYxOqyxjtpTadZdU-253" vertex="1">
          <mxGeometry x="100" width="30" height="22" as="geometry">
            <mxRectangle width="30" height="22" as="alternateBounds" />
          </mxGeometry>
        </mxCell>
        <mxCell id="hPnUlYxOqyxjtpTadZdU-257" style="shape=tableRow;horizontal=0;startSize=0;swimlaneHead=0;swimlaneBody=0;fillColor=none;collapsible=0;dropTarget=0;points=[[0,0.5],[1,0.5]];portConstraint=eastwest;top=0;left=0;right=0;bottom=0;" parent="hPnUlYxOqyxjtpTadZdU-252" vertex="1">
          <mxGeometry y="47" width="130" height="22" as="geometry" />
        </mxCell>
        <mxCell id="hPnUlYxOqyxjtpTadZdU-258" value="TEXT" style="shape=partialRectangle;connectable=0;fillColor=none;top=0;left=0;bottom=0;right=0;align=left;spacingLeft=2;overflow=hidden;fontSize=11;" parent="hPnUlYxOqyxjtpTadZdU-257" vertex="1">
          <mxGeometry width="40" height="22" as="geometry">
            <mxRectangle width="40" height="22" as="alternateBounds" />
          </mxGeometry>
        </mxCell>
        <mxCell id="hPnUlYxOqyxjtpTadZdU-259" value="email" style="shape=partialRectangle;connectable=0;fillColor=none;top=0;left=0;bottom=0;right=0;align=left;spacingLeft=2;overflow=hidden;fontSize=11;" parent="hPnUlYxOqyxjtpTadZdU-257" vertex="1">
          <mxGeometry x="40" width="60" height="22" as="geometry">
            <mxRectangle width="60" height="22" as="alternateBounds" />
          </mxGeometry>
        </mxCell>
        <mxCell id="hPnUlYxOqyxjtpTadZdU-260" value="" style="shape=partialRectangle;connectable=0;fillColor=none;top=0;left=0;bottom=0;right=0;align=left;spacingLeft=2;overflow=hidden;fontSize=11;" parent="hPnUlYxOqyxjtpTadZdU-257" vertex="1">
          <mxGeometry x="100" width="30" height="22" as="geometry">
            <mxRectangle width="30" height="22" as="alternateBounds" />
          </mxGeometry>
        </mxCell>
        <mxCell id="hPnUlYxOqyxjtpTadZdU-261" style="shape=tableRow;horizontal=0;startSize=0;swimlaneHead=0;swimlaneBody=0;fillColor=none;collapsible=0;dropTarget=0;points=[[0,0.5],[1,0.5]];portConstraint=eastwest;top=0;left=0;right=0;bottom=0;" parent="hPnUlYxOqyxjtpTadZdU-252" vertex="1">
          <mxGeometry y="69" width="130" height="22" as="geometry" />
        </mxCell>
        <mxCell id="hPnUlYxOqyxjtpTadZdU-262" value="TEXT" style="shape=partialRectangle;connectable=0;fillColor=none;top=0;left=0;bottom=0;right=0;align=left;spacingLeft=2;overflow=hidden;fontSize=11;" parent="hPnUlYxOqyxjtpTadZdU-261" vertex="1">
          <mxGeometry width="40" height="22" as="geometry">
            <mxRectangle width="40" height="22" as="alternateBounds" />
          </mxGeometry>
        </mxCell>
        <mxCell id="hPnUlYxOqyxjtpTadZdU-263" value="deckIds" style="shape=partialRectangle;connectable=0;fillColor=none;top=0;left=0;bottom=0;right=0;align=left;spacingLeft=2;overflow=hidden;fontSize=11;" parent="hPnUlYxOqyxjtpTadZdU-261" vertex="1">
          <mxGeometry x="40" width="60" height="22" as="geometry">
            <mxRectangle width="60" height="22" as="alternateBounds" />
          </mxGeometry>
        </mxCell>
        <mxCell id="hPnUlYxOqyxjtpTadZdU-264" value="" style="shape=partialRectangle;connectable=0;fillColor=none;top=0;left=0;bottom=0;right=0;align=left;spacingLeft=2;overflow=hidden;fontSize=11;" parent="hPnUlYxOqyxjtpTadZdU-261" vertex="1">
          <mxGeometry x="100" width="30" height="22" as="geometry">
            <mxRectangle width="30" height="22" as="alternateBounds" />
          </mxGeometry>
        </mxCell>
        <mxCell id="hPnUlYxOqyxjtpTadZdU-265" style="shape=tableRow;horizontal=0;startSize=0;swimlaneHead=0;swimlaneBody=0;fillColor=none;collapsible=0;dropTarget=0;points=[[0,0.5],[1,0.5]];portConstraint=eastwest;top=0;left=0;right=0;bottom=0;" parent="hPnUlYxOqyxjtpTadZdU-252" vertex="1">
          <mxGeometry y="91" width="130" height="22" as="geometry" />
        </mxCell>
        <mxCell id="hPnUlYxOqyxjtpTadZdU-266" value="TEXT" style="shape=partialRectangle;connectable=0;fillColor=none;top=0;left=0;bottom=0;right=0;align=left;spacingLeft=2;overflow=hidden;fontSize=11;" parent="hPnUlYxOqyxjtpTadZdU-265" vertex="1">
          <mxGeometry width="40" height="22" as="geometry">
            <mxRectangle width="40" height="22" as="alternateBounds" />
          </mxGeometry>
        </mxCell>
        <mxCell id="hPnUlYxOqyxjtpTadZdU-267" value="recordIds" style="shape=partialRectangle;connectable=0;fillColor=none;top=0;left=0;bottom=0;right=0;align=left;spacingLeft=2;overflow=hidden;fontSize=11;" parent="hPnUlYxOqyxjtpTadZdU-265" vertex="1">
          <mxGeometry x="40" width="60" height="22" as="geometry">
            <mxRectangle width="60" height="22" as="alternateBounds" />
          </mxGeometry>
        </mxCell>
        <mxCell id="hPnUlYxOqyxjtpTadZdU-268" value="" style="shape=partialRectangle;connectable=0;fillColor=none;top=0;left=0;bottom=0;right=0;align=left;spacingLeft=2;overflow=hidden;fontSize=11;" parent="hPnUlYxOqyxjtpTadZdU-265" vertex="1">
          <mxGeometry x="100" width="30" height="22" as="geometry">
            <mxRectangle width="30" height="22" as="alternateBounds" />
          </mxGeometry>
        </mxCell>
        <mxCell id="hPnUlYxOqyxjtpTadZdU-269" value="my_collections" style="shape=table;startSize=25;container=1;collapsible=0;childLayout=tableLayout;fixedRows=1;rowLines=1;fontStyle=1;align=center;resizeLast=1;" parent="1" vertex="1">
          <mxGeometry x="574" y="422" width="123" height="68" as="geometry" />
        </mxCell>
        <mxCell id="hPnUlYxOqyxjtpTadZdU-270" style="shape=tableRow;horizontal=0;startSize=0;swimlaneHead=0;swimlaneBody=0;fillColor=none;collapsible=0;dropTarget=0;points=[[0,0.5],[1,0.5]];portConstraint=eastwest;top=0;left=0;right=0;bottom=0;" parent="hPnUlYxOqyxjtpTadZdU-269" vertex="1">
          <mxGeometry y="25" width="123" height="21" as="geometry" />
        </mxCell>
        <mxCell id="hPnUlYxOqyxjtpTadZdU-271" value="TEXT" style="shape=partialRectangle;connectable=0;fillColor=none;top=0;left=0;bottom=0;right=0;align=left;spacingLeft=2;overflow=hidden;fontSize=11;" parent="hPnUlYxOqyxjtpTadZdU-270" vertex="1">
          <mxGeometry width="40" height="21" as="geometry">
            <mxRectangle width="40" height="21" as="alternateBounds" />
          </mxGeometry>
        </mxCell>
        <mxCell id="hPnUlYxOqyxjtpTadZdU-272" value="userId" style="shape=partialRectangle;connectable=0;fillColor=none;top=0;left=0;bottom=0;right=0;align=left;spacingLeft=2;overflow=hidden;fontSize=11;" parent="hPnUlYxOqyxjtpTadZdU-270" vertex="1">
          <mxGeometry x="40" width="40" height="21" as="geometry">
            <mxRectangle width="40" height="21" as="alternateBounds" />
          </mxGeometry>
        </mxCell>
        <mxCell id="hPnUlYxOqyxjtpTadZdU-273" value="PK, FK" style="shape=partialRectangle;connectable=0;fillColor=none;top=0;left=0;bottom=0;right=0;align=left;spacingLeft=2;overflow=hidden;fontSize=11;" parent="hPnUlYxOqyxjtpTadZdU-270" vertex="1">
          <mxGeometry x="80" width="43" height="21" as="geometry">
            <mxRectangle width="43" height="21" as="alternateBounds" />
          </mxGeometry>
        </mxCell>
        <mxCell id="hPnUlYxOqyxjtpTadZdU-274" style="shape=tableRow;horizontal=0;startSize=0;swimlaneHead=0;swimlaneBody=0;fillColor=none;collapsible=0;dropTarget=0;points=[[0,0.5],[1,0.5]];portConstraint=eastwest;top=0;left=0;right=0;bottom=0;" parent="hPnUlYxOqyxjtpTadZdU-269" vertex="1">
          <mxGeometry y="46" width="123" height="21" as="geometry" />
        </mxCell>
        <mxCell id="hPnUlYxOqyxjtpTadZdU-275" value="TEXT" style="shape=partialRectangle;connectable=0;fillColor=none;top=0;left=0;bottom=0;right=0;align=left;spacingLeft=2;overflow=hidden;fontSize=11;" parent="hPnUlYxOqyxjtpTadZdU-274" vertex="1">
          <mxGeometry width="40" height="21" as="geometry">
            <mxRectangle width="40" height="21" as="alternateBounds" />
          </mxGeometry>
        </mxCell>
        <mxCell id="hPnUlYxOqyxjtpTadZdU-276" value="card" style="shape=partialRectangle;connectable=0;fillColor=none;top=0;left=0;bottom=0;right=0;align=left;spacingLeft=2;overflow=hidden;fontSize=11;" parent="hPnUlYxOqyxjtpTadZdU-274" vertex="1">
          <mxGeometry x="40" width="40" height="21" as="geometry">
            <mxRectangle width="40" height="21" as="alternateBounds" />
          </mxGeometry>
        </mxCell>
        <mxCell id="hPnUlYxOqyxjtpTadZdU-277" value="" style="shape=partialRectangle;connectable=0;fillColor=none;top=0;left=0;bottom=0;right=0;align=left;spacingLeft=2;overflow=hidden;fontSize=11;" parent="hPnUlYxOqyxjtpTadZdU-274" vertex="1">
          <mxGeometry x="80" width="43" height="21" as="geometry">
            <mxRectangle width="43" height="21" as="alternateBounds" />
          </mxGeometry>
        </mxCell>
        <mxCell id="hPnUlYxOqyxjtpTadZdU-278" value="contains" style="curved=1;startArrow=ERmandOne;startSize=10;;endArrow=ERzeroToMany;endSize=10;;exitX=0.624;exitY=1.016;entryX=0.003;entryY=0.784;rounded=0;exitDx=0;exitDy=0;exitPerimeter=0;entryDx=0;entryDy=0;entryPerimeter=0;" parent="1" source="hPnUlYxOqyxjtpTadZdU-201" target="hPnUlYxOqyxjtpTadZdU-206" edge="1">
          <mxGeometry x="-0.2664" y="14" relative="1" as="geometry">
            <Array as="points">
              <mxPoint x="244" y="591" />
            </Array>
            <mxPoint as="offset" />
          </mxGeometry>
        </mxCell>
        <mxCell id="hPnUlYxOqyxjtpTadZdU-279" value="tracked by" style="curved=1;startArrow=ERmandOne;startSize=10;;endArrow=ERmandOne;endSize=10;;exitX=0.5;exitY=0.972;entryX=0.5;entryY=0;rounded=0;exitDx=0;exitDy=0;entryDx=0;entryDy=0;exitPerimeter=0;" parent="1" source="hPnUlYxOqyxjtpTadZdU-226" target="hPnUlYxOqyxjtpTadZdU-230" edge="1">
          <mxGeometry relative="1" as="geometry">
            <Array as="points" />
          </mxGeometry>
        </mxCell>
        <mxCell id="hPnUlYxOqyxjtpTadZdU-280" value="owns" style="curved=1;startArrow=ERmandOne;startSize=10;;endArrow=ERzeroToMany;endSize=10;;exitX=0;exitY=-0.003;rounded=0;exitDx=0;exitDy=0;exitPerimeter=0;entryX=0.632;entryY=0.014;entryDx=0;entryDy=0;entryPerimeter=0;" parent="1" source="hPnUlYxOqyxjtpTadZdU-261" target="hPnUlYxOqyxjtpTadZdU-192" edge="1">
          <mxGeometry x="0.0785" y="24" relative="1" as="geometry">
            <Array as="points">
              <mxPoint x="254" y="301" />
            </Array>
            <mxPoint as="offset" />
          </mxGeometry>
        </mxCell>
        <mxCell id="hPnUlYxOqyxjtpTadZdU-281" value="has" style="curved=1;startArrow=ERmandOne;startSize=10;;endArrow=ERzeroToMany;endSize=10;;exitX=0.5;exitY=1;entryX=0.5;entryY=0;rounded=0;" parent="1" source="hPnUlYxOqyxjtpTadZdU-252" target="hPnUlYxOqyxjtpTadZdU-239" edge="1">
          <mxGeometry relative="1" as="geometry">
            <Array as="points" />
          </mxGeometry>
        </mxCell>
        <mxCell id="hPnUlYxOqyxjtpTadZdU-282" value="logs" style="curved=1;startArrow=ERmandOne;startSize=10;;endArrow=ERzeroToMany;endSize=10;;exitX=0.5;exitY=0.99;entryX=0.5;entryY=0;rounded=0;" parent="1" source="hPnUlYxOqyxjtpTadZdU-239" target="hPnUlYxOqyxjtpTadZdU-205" edge="1">
          <mxGeometry relative="1" as="geometry">
            <Array as="points" />
          </mxGeometry>
        </mxCell>
        <mxCell id="hPnUlYxOqyxjtpTadZdU-283" value="collects" style="curved=1;startArrow=ERmandOne;startSize=10;;endArrow=ERzeroToMany;endSize=10;;exitX=0.998;exitY=0.031;rounded=0;exitDx=0;exitDy=0;exitPerimeter=0;entryX=0.331;entryY=0.008;entryDx=0;entryDy=0;entryPerimeter=0;" parent="1" source="hPnUlYxOqyxjtpTadZdU-261" target="hPnUlYxOqyxjtpTadZdU-269" edge="1">
          <mxGeometry x="0.1571" y="-23" relative="1" as="geometry">
            <Array as="points">
              <mxPoint x="594" y="311" />
            </Array>
            <mxPoint x="484.1999999999998" y="268.9000000000001" as="sourcePoint" />
            <mxPoint x="615" y="421" as="targetPoint" />
            <mxPoint as="offset" />
          </mxGeometry>
        </mxCell>
        <mxCell id="hPnUlYxOqyxjtpTadZdU-284" value="includes" style="curved=1;startArrow=ERmandOne;startSize=10;;endArrow=ERmandOne;endSize=10;;exitX=0.335;exitY=1.062;entryX=0.999;entryY=0.703;rounded=0;exitDx=0;exitDy=0;exitPerimeter=0;entryDx=0;entryDy=0;entryPerimeter=0;" parent="1" source="hPnUlYxOqyxjtpTadZdU-274" target="hPnUlYxOqyxjtpTadZdU-206" edge="1">
          <mxGeometry x="-0.2208" y="-15" relative="1" as="geometry">
            <Array as="points">
              <mxPoint x="594" y="601" />
            </Array>
            <mxPoint as="offset" />
          </mxGeometry>
        </mxCell>
      </root>
    </mxGraphModel>
  </diagram>
</mxfile>
